<svg id="visual" viewBox="0 0 300 300" width="300" height="300" xmlns="http://www.w3.org/2000/svg" xmlns:xlink="http://www.w3.org/1999/xlink" version="1.1"><g transform="translate(132.01914366205565 136.96874349602362)"><path d="M96.9 -116.4C120.4 -116.4 130.6 -81.1 138.4 -47.3C146.1 -13.5 151.5 18.7 142.2 45.8C132.8 72.8 108.7 94.7 82.6 112.3C56.4 130 28.2 143.5 0.8 142.4C-26.6 141.3 -53.3 125.7 -74.7 106.5C-96.1 87.3 -112.2 64.5 -111.1 42.2C-110 19.9 -91.6 -2 -74.8 -15.2C-58 -28.5 -42.8 -33.2 -30.6 -36.9C-18.4 -40.6 -9.2 -43.3 13.8 -62.3C36.7 -81.2 73.5 -116.5 96.9 -116.4" fill="#2e266d"></path></g></svg>