<svg id="visual" viewBox="0 0 960 270" width="960" height="270" xmlns="http://www.w3.org/2000/svg" xmlns:xlink="http://www.w3.org/1999/xlink" version="1.1"><rect x="0" y="0" width="960" height="270" fill="#ffbb33"></rect><path d="M0 148L16 156.5C32 165 64 182 96 181.7C128 181.3 160 163.7 192 165.2C224 166.7 256 187.3 288 195C320 202.7 352 197.3 384 201.5C416 205.7 448 219.3 480 220.3C512 221.3 544 209.7 576 194.2C608 178.7 640 159.3 672 160.7C704 162 736 184 768 190.3C800 196.7 832 187.3 864 176.5C896 165.7 928 153.3 944 147.2L960 141L960 0L944 0C928 0 896 0 864 0C832 0 800 0 768 0C736 0 704 0 672 0C640 0 608 0 576 0C544 0 512 0 480 0C448 0 416 0 384 0C352 0 320 0 288 0C256 0 224 0 192 0C160 0 128 0 96 0C64 0 32 0 16 0L0 0Z" fill="#f7e135"></path><path d="M0 122L16 121.5C32 121 64 120 96 123.3C128 126.7 160 134.3 192 135.2C224 136 256 130 288 134.7C320 139.3 352 154.7 384 153.5C416 152.3 448 134.7 480 125.7C512 116.7 544 116.3 576 120C608 123.7 640 131.3 672 140.5C704 149.7 736 160.3 768 160.2C800 160 832 149 864 152.2C896 155.3 928 172.7 944 181.3L960 190L960 0L944 0C928 0 896 0 864 0C832 0 800 0 768 0C736 0 704 0 672 0C640 0 608 0 576 0C544 0 512 0 480 0C448 0 416 0 384 0C352 0 320 0 288 0C256 0 224 0 192 0C160 0 128 0 96 0C64 0 32 0 16 0L0 0Z" fill="#ff913e"></path><path d="M0 101L16 106C32 111 64 121 96 129C128 137 160 143 192 142.7C224 142.3 256 135.7 288 133.3C320 131 352 133 384 131.8C416 130.7 448 126.3 480 122.3C512 118.3 544 114.7 576 112.8C608 111 640 111 672 106.3C704 101.7 736 92.3 768 93C800 93.7 832 104.3 864 103.5C896 102.7 928 90.3 944 84.2L960 78L960 0L944 0C928 0 896 0 864 0C832 0 800 0 768 0C736 0 704 0 672 0C640 0 608 0 576 0C544 0 512 0 480 0C448 0 416 0 384 0C352 0 320 0 288 0C256 0 224 0 192 0C160 0 128 0 96 0C64 0 32 0 16 0L0 0Z" fill="#e44c61"></path><path d="M0 107L16 105.3C32 103.7 64 100.3 96 94.8C128 89.3 160 81.7 192 79C224 76.3 256 78.7 288 76C320 73.3 352 65.7 384 68.5C416 71.3 448 84.7 480 87.2C512 89.7 544 81.3 576 75.8C608 70.3 640 67.7 672 68.2C704 68.7 736 72.3 768 73.8C800 75.3 832 74.7 864 76.5C896 78.3 928 82.7 944 84.8L960 87L960 0L944 0C928 0 896 0 864 0C832 0 800 0 768 0C736 0 704 0 672 0C640 0 608 0 576 0C544 0 512 0 480 0C448 0 416 0 384 0C352 0 320 0 288 0C256 0 224 0 192 0C160 0 128 0 96 0C64 0 32 0 16 0L0 0Z" fill="#992b77"></path><path d="M0 41L16 45.2C32 49.3 64 57.7 96 56.3C128 55 160 44 192 37C224 30 256 27 288 26.3C320 25.7 352 27.3 384 27.7C416 28 448 27 480 28.5C512 30 544 34 576 34.7C608 35.3 640 32.7 672 37.7C704 42.7 736 55.3 768 58.8C800 62.3 832 56.7 864 56.3C896 56 928 61 944 63.5L960 66L960 0L944 0C928 0 896 0 864 0C832 0 800 0 768 0C736 0 704 0 672 0C640 0 608 0 576 0C544 0 512 0 480 0C448 0 416 0 384 0C352 0 320 0 288 0C256 0 224 0 192 0C160 0 128 0 96 0C64 0 32 0 16 0L0 0Z" fill="#2e266d"></path></svg>